<svg width="63" height="25" viewBox="0 0 63 25" fill="none" xmlns="http://www.w3.org/2000/svg">
<path d="M12.7847 22.1846C18.3075 22.1846 22.7847 17.7074 22.7847 12.1846C22.7847 6.66175 18.3075 2.1846 12.7847 2.1846C7.26182 2.1846 2.78467 6.66175 2.78467 12.1846C2.78467 17.7074 7.26182 22.1846 12.7847 22.1846Z" stroke="#20EEB0" stroke-width="2"/>
<path d="M40.7847 6.1846H60.7847M48.7847 11.1846V16.1846M52.7847 11.1846V16.1846M42.7847 6.1846H58.7847L57.2047 20.4046C57.1505 20.894 56.9177 21.3462 56.5509 21.6746C56.1841 22.003 55.709 22.1846 55.2167 22.1846H46.3527C45.8603 22.1846 45.3852 22.003 45.0184 21.6746C44.6516 21.3462 44.4188 20.894 44.3647 20.4046L42.7847 6.1846ZM46.1297 3.3316C46.2914 2.98857 46.5474 2.6986 46.8677 2.49551C47.188 2.29243 47.5594 2.1846 47.9387 2.1846H53.6307C54.0101 2.18441 54.3817 2.29215 54.7022 2.49524C55.0227 2.69834 55.2788 2.98841 55.4407 3.3316L56.7847 6.1846H44.7847L46.1297 3.3316V3.3316Z" stroke="#FF4545" stroke-width="2" stroke-linecap="round" stroke-linejoin="round"/>
</svg>
