<svg width="137" height="25" viewBox="0 0 137 25" fill="none" xmlns="http://www.w3.org/2000/svg">
<path d="M4.57732 6.84928C6.14764 6.84928 7.41727 5.67989 7.41727 4.2098C7.41727 2.73971 6.14764 1.53691 4.57732 1.53691C3.04041 1.53691 1.77079 2.73971 1.77079 4.2098C1.77079 5.67989 3.04041 6.84928 4.57732 6.84928ZM6.88269 20.5478V8.35278L0 10.4911V10.7918C1.70397 10.7918 2.4056 11.293 2.4056 12.9635V20.6147C2.4056 22.2518 1.77079 23.2875 0.0668222 23.2875V23.7219H9.18806V23.2875C7.5175 23.2875 6.88269 22.2518 6.88269 20.5478Z" fill="#161616"/>
<path d="M25.1335 20.5144V0L18.2174 2.13831V2.43901C19.9214 2.43901 20.623 2.97359 20.623 4.64414V9.85628C20.3223 9.25488 19.4536 8.31937 17.8499 8.31937C14.4754 8.31937 10.7333 11.5602 10.7333 17.1065C10.7333 20.8819 13.0387 24.0226 16.4466 24.0226C18.5181 24.0226 20.0884 22.5525 20.623 21.4833V21.5836L20.7567 23.6885H27.4389V23.2541C25.7349 23.2541 25.1335 22.2184 25.1335 20.5144ZM18.6183 22.0179C16.5803 22.0179 15.3106 19.1446 15.3106 15.3023C15.3106 12.3621 16.5134 9.12123 18.3511 9.12123C19.5539 9.12123 20.623 10.7918 20.623 12.7296V20.1135C20.4894 20.6815 19.9548 22.0179 18.6183 22.0179Z" fill="#161616"/>
<path d="M51.7611 10.892C51.7611 10.892 44.2102 7.28362 44.0766 7.2168C42.8738 6.64881 41.4037 5.67989 41.4037 3.70863C41.4037 2.23855 42.5062 1.13598 44.4441 1.13598C46.3485 1.13598 47.6181 2.13831 48.7875 3.40793C49.6896 4.41027 50.5583 5.44601 51.5272 6.34811C52.1286 6.94951 53.0307 7.5175 54.0999 7.71797H54.2335C53.5653 5.44601 52.7969 2.60607 53.0642 0.3007H52.8303C51.8948 0.768456 51.4938 1.10257 50.1908 1.10257C48.3532 1.10257 46.7495 0.3007 44.4775 0.3007C41.27 0.3007 38.4301 3.04041 38.4301 6.41493C38.4301 9.6224 41.0027 11.5602 42.6399 12.3287C42.8069 12.3955 48.9212 15.3357 49.2887 15.5028C50.0572 15.8703 52.5964 16.8726 52.5964 19.4787C52.5964 21.8509 50.692 23.1205 48.6539 23.1205C44.9787 23.1205 44.0432 15.6698 36.96 15.6698C38.1628 18.1756 38.2964 21.1826 38.0292 24.056H38.3633C39.232 23.1873 40.2677 22.6527 41.3369 22.6527C43.3081 22.6527 45.5801 24.056 48.5871 24.056C52.2623 24.056 55.6702 21.2161 55.6702 17.3404C55.6702 14.467 53.5987 11.7607 51.7611 10.892Z" fill="#161616"/>
<path d="M67.9159 20.8819C67.7155 21.3831 67.3145 22.352 66.1785 22.352C65.243 22.352 64.508 21.7172 64.508 20.3808V9.28829H67.6152V8.65348H64.508V3.007H64.0402C63.2049 5.27896 60.6991 8.51983 57.4582 8.65348V9.28829H60.0309V20.3808C60.0309 22.5525 61.2337 24.0226 64.107 24.0226C66.3122 24.0226 67.8825 22.5191 68.4171 20.8819H67.9159Z" fill="#161616"/>
<path d="M86.5431 20.6481V8.35278L79.6604 10.4577V10.7918C81.3644 10.7918 82.066 11.293 82.066 12.9635L82.0326 20.9822L81.6651 21.1826C80.9969 21.5502 80.0614 22.2518 78.9922 22.2518C77.589 22.2518 77.1212 21.2495 77.1212 19.7126V8.35278L70.2385 10.4577V10.7918C71.9425 10.7918 72.6441 11.293 72.6441 12.9635V20.8485C72.6441 22.5859 73.7467 24.0226 75.885 24.0226C77.7226 24.0226 79.3932 23.1873 82.0326 21.7506V23.6885H88.648V23.2541C86.9441 23.2541 86.5431 22.352 86.5431 20.6481Z" fill="#161616"/>
<path d="M105.098 20.5144V0L98.1822 2.13831V2.43901C99.8862 2.43901 100.588 2.97359 100.588 4.64414V9.85628C100.287 9.25488 99.4184 8.31937 97.8147 8.31937C94.4402 8.31937 90.6981 11.5602 90.6981 17.1065C90.6981 20.8819 93.0035 24.0226 96.4114 24.0226C98.4829 24.0226 100.053 22.5525 100.588 21.4833V21.5836L100.721 23.6885H107.404V23.2541C105.7 23.2541 105.098 22.2184 105.098 20.5144ZM98.5831 22.0179C96.5451 22.0179 95.2754 19.1446 95.2754 15.3023C95.2754 12.3621 96.4782 9.12123 98.3158 9.12123C99.5187 9.12123 100.588 10.7918 100.588 12.7296V20.1135C100.454 20.6815 99.9196 22.0179 98.5831 22.0179Z" fill="#161616"/>
<path d="M113.914 6.84928C115.484 6.84928 116.754 5.67989 116.754 4.2098C116.754 2.73971 115.484 1.53691 113.914 1.53691C112.377 1.53691 111.107 2.73971 111.107 4.2098C111.107 5.67989 112.377 6.84928 113.914 6.84928ZM116.219 20.5478V8.35278L109.337 10.4911V10.7918C111.041 10.7918 111.742 11.293 111.742 12.9635V20.6147C111.742 22.2518 111.107 23.2875 109.403 23.2875V23.7219H118.525V23.2875C116.854 23.2875 116.219 22.2518 116.219 20.5478Z" fill="#161616"/>
<path d="M128.35 8.31937C124.106 8.31937 120.264 11.293 120.264 16.171C120.264 21.0824 124.106 24.0226 128.35 24.0226C132.626 24.0226 136.468 21.0824 136.468 16.171C136.468 11.293 132.626 8.31937 128.35 8.31937ZM128.35 23.2541C126.245 23.2541 125.075 20.481 125.075 16.171C125.075 11.7941 126.245 9.08782 128.35 9.08782C130.454 9.08782 131.624 11.7941 131.624 16.171C131.624 20.5478 130.454 23.2541 128.35 23.2541Z" fill="#161616"/>
<circle cx="4.61547" cy="4.06469" r="3.13012" fill="#D3A265"/>
</svg>
