<svg width="23" height="23" viewBox="0 0 23 23" fill="none" xmlns="http://www.w3.org/2000/svg">
<path d="M1.78467 5.1846H21.7847M9.78467 10.1846V15.1846M13.7847 10.1846V15.1846M3.78467 5.1846H19.7847L18.2047 19.4046C18.1505 19.894 17.9177 20.3462 17.5509 20.6746C17.1841 21.003 16.709 21.1846 16.2167 21.1846H7.35267C6.8603 21.1846 6.38523 21.003 6.01842 20.6746C5.6516 20.3462 5.41883 19.894 5.36467 19.4046L3.78467 5.1846ZM7.12967 2.3316C7.29142 1.98857 7.54737 1.6986 7.86767 1.49551C8.18797 1.29243 8.55941 1.1846 8.93867 1.1846H14.6307C15.0101 1.18441 15.3817 1.29215 15.7022 1.49524C16.0227 1.69834 16.2788 1.98841 16.4407 2.3316L17.7847 5.1846H5.78467L7.12967 2.3316V2.3316Z" stroke="#FF4545" stroke-width="2" stroke-linecap="round" stroke-linejoin="round"/>
</svg>
